# xmcd CD database file
#
# Track frame offsets:
#	150
#	21215
#	40111
#	61903
#	82035
#
# Disc length: 1373 seconds
#
# Revision: 0
# Processed by: cddbd v1.5PL3 Copyright (c) Steve Scherf et al.
# Submitted via: CDex 1.50beta9
#
DISCID=36055b05
DTITLE=Tracy Conover - Tracy Conover
DYEAR=1900
DGENRE=Blues
TTITLE0=Escape
TTITLE1=There For Me
TTITLE2=My Big Rocker
TTITLE3=Garden of Color
TTITLE4=Bye Bye Baby
EXTD=
EXTT0=
EXTT1=
EXTT2=
EXTT3=
EXTT4=
PLAYORDER=
